<svg xmlns="http://www.w3.org/2000/svg" viewBox="0 0 90 90"><title>feature__a1</title><path d="M45,2A43,43,0,1,1,2,45,43.06,43.06,0,0,1,45,2m0-2A45,45,0,1,0,90,45,45,45,0,0,0,45,0h0Z"/><path d="M81.3,28.4V61.7a32.85,32.85,0,0,0,2-5.2V33.7A48.09,48.09,0,0,0,81.3,28.4Z"/><path d="M77.4,21.8L58.6,48.3a4.75,4.75,0,0,0-2.4-.6,5.18,5.18,0,0,0-4.3,2.4L33.8,38.2a6.8,6.8,0,0,0,.2-1.5,5,5,0,0,0-10,0,4.84,4.84,0,0,0,1,2.9L9.7,63.1c0.4,0.8.9,1.6,1.4,2.5l2.4-3.7v7.2c0.6,0.7,1.2,1.4,1.8,2.2V59.1l3.4-5.2V74.6c0.6,0.5,1.2,1.1,1.8,1.6v-25L23.9,46V78.7c0.6,0.4,1.2.7,1.8,1.1V43.2L27,41.3a4.55,4.55,0,0,0,2,.5h0.1V81.6a10.61,10.61,0,0,0,1.9.7V41.4a4,4,0,0,0,1.5-1l1.8,1.2V83.5c0.6,0.2,1.2.2,1.9,0.4v-41l3.4,2.2V84.6a10.8,10.8,0,0,0,1.8.1V46.2l3.4,2.2V84.9h0.4c0.5,0,1-.1,1.5-0.1V49.6l3.4,2.2V84.6l1.8-.3V55.1a4.67,4.67,0,0,0,3.5,2.4v26c0.5-.1,1.1-0.3,1.7-0.4V57.5a4.64,4.64,0,0,0,3.4-2.3V81.9c0.7-.3,1.3-0.6,1.9-0.9V47.2l3.3-4.6V79.2c0.7-.4,1.3-0.8,1.9-1.2V39.9l3.3-4.6V75.5c0.7-.6,1.3-1.2,2-1.8V32.5l3.2-4.6V70.1c0.7-.9,1.4-1.8,2-2.7V25.1L78.9,24C78.4,23.2,77.9,22.5,77.4,21.8Zm-17,28.3h0v0Z"/></svg>