<svg xmlns="http://www.w3.org/2000/svg" viewBox="0 0 60 59.99"><title>feature__a</title><path d="M48.5,54.68l5-5L10.8,7.1,1.46,2.67,6,12.17ZM10.39,9.5a1.41,1.41,0,0,1-.54.24H8.52v1.32h0a0.85,0.85,0,0,1-.23.54A0.9,0.9,0,0,1,7,11.6l0,0-0.16-.16L4.65,6.86l1-1L10.25,8,10.41,8.2l0,0A0.91,0.91,0,0,1,10.39,9.5ZM51.93,49.72l-1.71,1.71L9.5,10.71a1.64,1.64,0,0,0,1.71-.39,2,2,0,0,0,.48-0.84Z"/><path d="M53.21,59.38l5-5-3.5-3.51-5,5Zm3.42-5-3.42,3.42-2-2,3.42-3.43Z"/><polygon points="30.04 38.27 29.01 39.3 26.18 36.48 25.42 37.25 28.24 40.07 27.16 41.15 25.55 39.52 24.77 40.29 26.39 41.91 25.32 42.99 23.7 41.37 22.93 42.14 24.55 43.76 23.48 44.83 20.66 42.01 19.89 42.78 22.71 45.6 21.63 46.68 20.02 45.06 19.25 45.83 20.87 47.44 19.79 48.52 18.17 46.9 17.4 47.67 19.02 49.29 17.95 50.36 15.13 47.54 14.36 48.31 17.18 51.13 16.1 52.21 14.48 50.59 13.71 51.35 15.33 52.98 14.26 54.05 12.64 52.43 11.87 53.2 13.49 54.82 12.42 55.89 9.6 53.07 8.83 53.84 11.65 56.66 9.86 58.45 1.54 50.14 21.72 29.96 20.95 29.19 0.39 49.76 0 50.14 9.86 59.99 30.81 39.04 30.04 38.27"/><polygon points="50.15 0 27.98 22.16 28.75 22.93 50.15 1.54 58.46 9.85 56.66 11.65 53.84 8.83 53.07 9.6 55.89 12.42 54.82 13.49 53.2 11.87 52.43 12.64 54.05 14.26 52.97 15.34 51.35 13.72 50.59 14.49 52.21 16.11 51.13 17.18 48.31 14.36 47.54 15.13 50.36 17.95 49.29 19.02 47.67 17.41 46.9 18.17 48.52 19.79 47.44 20.87 45.83 19.25 45.06 20.02 46.67 21.64 45.6 22.71 42.78 19.89 42.01 20.66 44.83 23.48 43.76 24.55 42.14 22.94 41.37 23.7 42.99 25.32 41.91 26.4 40.29 24.78 39.53 25.55 41.14 27.17 40.07 28.24 37.25 25.42 36.48 26.19 39.3 29.01 38.23 30.08 36.61 28.46 35.84 29.23 37.46 30.85 37.06 31.25 37.83 32.02 59.61 10.23 60 9.85 50.15 0"/></svg>