<svg xmlns="http://www.w3.org/2000/svg" viewBox="0 0 90 90"><title>feature__d</title><path d="M87.19,45A42.18,42.18,0,1,0,74.83,74.83,42.06,42.06,0,0,0,87.19,45h0ZM76.82,13.18A45,45,0,1,1,45,0,44.88,44.88,0,0,1,76.82,13.18Z" style="fill:#000003;fill-rule:evenodd"/><path d="M50.93,39.07a1.41,1.41,0,1,1-2,2,5.58,5.58,0,0,0-9.09,1.8,5.6,5.6,0,0,0,3,7.29h0a5.61,5.61,0,0,0,2.13.42,5.55,5.55,0,0,0,3.94-1.63,1.41,1.41,0,0,1,2,2,8.38,8.38,0,0,1-9.14,1.81h0A8.38,8.38,0,1,1,50.93,39.07Z" style="fill:#000003;fill-rule:evenodd"/><path d="M57.57,30.44a1.41,1.41,0,0,1,2,2L46,46a1.41,1.41,0,0,1-2-2Z" style="fill:#000003;fill-rule:evenodd"/><path d="M31.05,43.59a1.41,1.41,0,1,1,0,2.81H7.51a1.41,1.41,0,1,1,0-2.81H31.05Z" style="fill:#000003;fill-rule:evenodd"/><path d="M59.56,46.41a1.41,1.41,0,1,1,0-2.81H82.49a1.41,1.41,0,0,1,0,2.81H59.56Z" style="fill:#000003;fill-rule:evenodd"/><path d="M46.41,31.05a1.41,1.41,0,1,1-2.81,0V7.51a1.41,1.41,0,0,1,2.81,0V31.05Z" style="fill:#000003;fill-rule:evenodd"/><path d="M43.59,59.56a1.41,1.41,0,0,1,2.81,0V82.49a1.41,1.41,0,1,1-2.81,0V59.56Z" style="fill:#000003;fill-rule:evenodd"/><path d="M64.13,22l-1.57,1.56h0L62.13,24,60,26.13V30h3.9L68,25.87h-2.5a1.41,1.41,0,0,1-1.41-1.41V22h0Zm-3.55-.42,3.9-3.9a1.41,1.41,0,0,1,2.47.92v4.48h4.48a1.4,1.4,0,0,1,1,2.4l-6.9,6.9a1.41,1.41,0,0,1-1.06.49H58.56a1.41,1.41,0,0,1-1.41-1.41V25.55a1.41,1.41,0,0,1,.41-1L60.14,22l0.43-.43h0Z" style="fill:#000003;fill-rule:evenodd"/><path d="M61.87,21.85a1.4,1.4,0,1,1-1.65,2.26c-0.37-.26-0.78-0.55-1.22-0.84l-0.09-.06c-0.36-.23-0.75-0.47-1.18-0.71s-0.87-.48-1.32-0.7-0.92-.44-1.35-0.62a24.85,24.85,0,0,0-2.38-.87c-0.8-.25-1.62-0.46-2.45-0.63h0a1.4,1.4,0,1,1,.53-2.75h0.06c0.93,0.19,1.84.43,2.73,0.7s1.78,0.6,2.64,1c0.53,0.23,1,.45,1.51.69s1,0.5,1.46.78,0.86,0.5,1.32.8l0.08,0c0.42,0.27.88,0.59,1.36,0.94h0ZM45,16.34a1.41,1.41,0,0,1,0,2.82c-0.92,0-1.8,0-2.62.13a25.8,25.8,0,0,0-2.58.4c-0.83.17-1.66,0.38-2.47,0.63a25.59,25.59,0,0,0-4.63,2h0c-0.72.39-1.44,0.83-2.14,1.3s-1.36,1-2,1.49l-0.07.05c-0.58.48-1.18,1-1.77,1.62S25.55,28,25.06,28.56h0c-0.52.63-1,1.3-1.49,2s-0.91,1.41-1.3,2.13h0c-0.41.76-.78,1.51-1.09,2.25s-0.62,1.57-.87,2.38-0.46,1.63-.63,2.46h0v0a1.41,1.41,0,0,1-2.76-.55v0h0c0.19-.93.43-1.85,0.7-2.73a28.15,28.15,0,0,1,1-2.65,27.71,27.71,0,0,1,1.2-2.5h0c0.45-.82.93-1.62,1.44-2.37s1.07-1.5,1.65-2.2h0c0.61-.74,1.23-1.42,1.84-2s1.26-1.2,2-1.8l0.06,0c0.71-.59,1.45-1.14,2.21-1.65s1.55-1,2.38-1.44h0c0.8-.43,1.63-0.84,2.49-1.2s1.76-.69,2.65-1,1.8-.51,2.73-0.7a27.59,27.59,0,0,1,2.87-.44,28.89,28.89,0,0,1,2.9-.15h0ZM16.35,45a1.41,1.41,0,0,1,2.81,0c0,0.92,0,1.8.13,2.63a25.53,25.53,0,0,0,.39,2.58c0.17,0.83.38,1.66,0.63,2.47a25.17,25.17,0,0,0,.87,2.38q0.48,1.15,1.08,2.25c0.39,0.71.82,1.43,1.3,2.14s1,1.38,1.49,2,1.06,1.22,1.67,1.83l0.07,0.08c0.57,0.56,1.16,1.1,1.75,1.59h0c0.63,0.52,1.3,1,2,1.49s1.41,0.91,2.14,1.3l0.07,0c0.71,0.38,1.44.74,2.18,1s1.56,0.62,2.38.87A25.76,25.76,0,0,0,45,70.84a1.41,1.41,0,1,1,0,2.81c-0.94,0-1.92-.05-2.9-0.15a28.83,28.83,0,0,1-5.6-1.14,27.82,27.82,0,0,1-2.65-1C33,71,32.2,70.65,31.42,70.23l-0.06,0c-0.83-.45-1.62-0.93-2.38-1.44s-1.5-1.06-2.21-1.65h0c-0.69-.56-1.34-1.16-2-1.77l-0.08-.07c-0.61-.62-1.23-1.3-1.85-2s-1.15-1.46-1.65-2.2-1-1.54-1.44-2.37S19,57,18.61,56.15s-0.7-1.76-1-2.65-0.51-1.8-.7-2.73a28.62,28.62,0,0,1-.44-2.87c-0.1-1-.15-2-0.15-2.9h0ZM50.72,73.08a1.41,1.41,0,0,1-.55-2.76h0.11c0.8-.17,1.6-0.37,2.38-0.62h0c0.84-.26,1.63-0.55,2.39-0.87s1.49-.67,2.25-1.09l0.08,0c0.7-.38,1.38-0.8,2.06-1.26s1.36-1,2-1.49l0.07-.06c0.58-.48,1.17-1,1.76-1.62s1.18-1.23,1.68-1.83,1-1.28,1.48-2,0.92-1.42,1.3-2.13h0c0.4-.75.77-1.5,1.09-2.25s0.62-1.56.87-2.38,0.46-1.64.64-2.47,0.3-1.71.39-2.58,0.13-1.71.13-2.63a1.41,1.41,0,0,1,2.81,0c0,0.95-.05,1.92-0.15,2.9a28.5,28.5,0,0,1-1.14,5.6c-0.28.89-.6,1.78-1,2.65s-0.77,1.71-1.2,2.5h0c-0.45.84-.94,1.63-1.44,2.37s-1.05,1.47-1.65,2.2-1.23,1.43-1.85,2S64,66.45,63.3,67l-0.07.07c-0.71.59-1.45,1.14-2.21,1.65s-1.5,1-2.31,1.41l-0.06,0c-0.77.42-1.61,0.82-2.5,1.2s-1.77.7-2.64,1h0c-0.86.26-1.73,0.49-2.63,0.68l-0.11,0h0Zm22.36-33.8a1.41,1.41,0,0,1-2.76.55V39.71q-0.25-1.21-.62-2.39c-0.25-.82-0.55-1.62-0.87-2.38a1.4,1.4,0,0,1,2.58-1.08,28.16,28.16,0,0,1,1,2.65c0.27,0.85.49,1.73,0.68,2.63l0,0.11v0Z" style="fill:#000003;fill-rule:evenodd"/></svg>